<svg width="140" height="139" viewBox="0 0 140 139" fill="none" xmlns="http://www.w3.org/2000/svg">
<path d="M5.70031 48.7093C8.57917 32.807 10.0186 24.8559 14.0653 18.8975C17.633 13.6444 22.6006 9.49543 28.4052 6.92056C34.9891 4 43.0695 4 59.2302 4H80.9987C103.574 4 114.862 4 122.8 8.62946C129.764 12.6905 135.058 19.0938 137.738 26.6966C140.793 35.3636 138.672 46.4501 134.429 68.6232L123.493 125.782C122.447 131.251 121.923 133.985 120.479 135.324C119.219 136.492 117.52 137.063 115.811 136.894C113.851 136.701 111.781 134.838 107.642 131.113L100.771 124.929C98.7452 123.106 97.7325 122.194 96.5786 121.545C95.5552 120.968 94.4527 120.545 93.3063 120.289C92.0138 120 90.6514 120 87.9265 120H57.9268C35.5535 120 24.3668 120 16.4618 115.422C9.52623 111.405 4.2327 105.067 1.51554 97.5266C-1.58146 88.9324 0.411313 77.9247 4.39686 55.9092L5.70031 48.7093Z" fill="#191919"/>
<path d="M66.6247 94C50.2672 94 38.7942 80.4627 38.7942 63.9426C38.7942 47.652 51.9711 34 69.2374 34C86.8445 34 99.7942 46.8489 99.7942 63.9426V92.5086H84.459V85.8547C80.4832 90.9025 74.3491 94 66.6247 94ZM69.2374 78.7419C77.5298 78.7419 83.6638 72.088 83.6638 64.0574C83.6638 56.0268 77.5298 49.3729 69.2374 49.3729C60.945 49.3729 54.9245 56.0268 54.9245 64.0574C54.9245 72.088 60.945 78.7419 69.2374 78.7419Z" fill="white"/>
</svg>
